<?xml version="1.0" encoding="UTF-8"?>
<svg width="657px" height="666px" viewBox="0 0 657 666" version="1.1" xmlns="http://www.w3.org/2000/svg" xmlns:xlink="http://www.w3.org/1999/xlink">
    <!-- Generator: Sketch 50.2 (55047) - http://www.bohemiancoding.com/sketch -->
    <title>Artboard</title>
    <desc>Created with Sketch.</desc>
    <defs></defs>
    <g id="Artboard" stroke="none" stroke-width="1" fill="none" fill-rule="evenodd">
        <path d="M297.465635,348.317306 L314.351029,374.318532 L124.945683,497.319802 C118.191237,499.980729 113.390487,501.444085 110.543434,501.70987 C100.084285,502.686277 93.1833973,499.986552 90.5976531,499.033991 C86.9561226,497.69249 81.3389117,493.807148 73.7460204,487.377967 C67.3460532,479.36764 63.2534956,473.065654 61.4683475,468.472009 C56.1751676,454.851296 55.8127012,440.701758 56.4286932,437.730013 C59.5191518,422.820639 68.3124761,415.840267 70.9288502,414.141174 C74.7231937,411.677098 82.4303197,410.001585 94.0502283,409.114634 C102.394504,411.457872 108.183355,413.822209 111.416781,416.207644 C114.650207,418.593079 119.827187,424.3187 126.947723,433.384507 L135.59431,453.437774 L297.465635,348.317306 Z M322.756281,371.081241 L353.641213,373.783322 L333.957962,598.763915 C331.896349,605.724721 330.093852,610.408696 328.550472,612.815838 C322.880597,621.658896 316.504574,625.434753 314.162003,626.885892 C310.862935,628.929546 304.342944,630.963914 294.602029,632.988994 C284.349592,633.100588 276.863929,632.445677 272.14504,631.024262 C258.152965,626.809597 246.779821,618.383899 244.817297,616.068902 C234.971226,604.45446 234.884328,593.22768 235.156225,590.119883 C235.550539,585.612863 238.975197,578.508016 245.4302,568.805341 C252.413946,563.672604 257.841041,560.566558 261.711485,559.487204 C265.581929,558.40785 273.281048,557.853378 284.808841,557.823787 L305.934401,563.356208 L322.756281,371.081241 Z M347.261869,375.071028 L376.395072,364.467409 L453.636895,576.687574 C454.710203,583.867482 455.056119,588.874372 454.674645,591.708244 C453.27323,602.11897 449.090337,608.235682 447.580524,610.540874 C445.454239,613.7873 440.404881,618.386531 432.43245,624.338566 C423.187748,628.772571 416.126656,631.342598 411.249175,632.048647 C396.786854,634.14217 382.918431,631.312393 380.16142,630.043692 C366.329374,623.678562 361.505976,613.540368 360.438986,610.608838 C358.891606,606.357447 358.992763,598.470946 360.742455,586.949334 C364.90269,579.346035 368.508637,574.237412 371.560295,571.623465 C374.611954,569.009518 381.355395,565.253207 391.790619,560.354533 L413.27498,556.440562 L347.261869,375.071028 Z M312.599674,356.268419 L338.891631,372.697457 L219.214674,564.220624 C214.217623,569.486795 210.485107,572.841931 208.017126,574.28603 C198.950566,579.591183 191.555285,580.060843 188.809235,580.290312 C184.941945,580.613476 178.209006,579.466096 168.61042,576.848174 C159.42477,572.293095 153.052318,568.311145 149.493066,564.902325 C138.939454,554.794762 132.631095,542.12411 131.93346,539.170466 C128.433393,524.351899 133.452818,514.309314 135.105991,511.663685 C137.503471,507.826916 143.780396,503.051213 153.936768,497.336577 C162.489546,495.933828 168.735238,495.630171 172.673846,496.425604 C176.612453,497.221038 183.724143,500.222326 194.008916,505.429469 L210.320261,519.949696 L312.599674,356.268419 Z M354.442165,392.880792 L373.952927,368.787007 L549.463556,510.912713 C554.081487,516.514302 556.956735,520.627884 558.089299,523.25346 C562.249972,532.898976 561.814873,540.29637 561.707973,543.049917 C561.557424,546.927765 559.598058,553.470687 555.829875,562.678682 C550.1893,571.240739 545.460425,577.080414 541.64325,580.197705 C530.324865,589.44085 516.979863,594.158023 513.963214,594.4905 C498.828552,596.158549 489.472537,589.952654 487.0481,587.989383 C483.532108,585.142189 479.556967,578.330039 475.122678,567.552932 C474.772706,558.892954 475.232471,552.656809 476.501971,548.844499 C477.77147,545.032188 481.617085,538.339273 488.038813,528.765752 L504.438661,514.345559 L354.442165,392.880792 Z M387.160408,336.806153 L379.136265,306.859644 L597.280936,248.407955 C604.527068,247.964502 609.545054,248.056281 612.334894,248.683292 C622.583862,250.986729 628.312736,255.686811 630.477567,257.391789 C633.526321,259.792928 637.66797,265.223921 642.902512,273.684768 C646.513916,283.280741 648.458748,290.538955 648.737011,295.459413 C649.562092,310.049163 645.534371,323.618181 644.030208,326.254126 C636.483757,339.47878 625.963755,343.400221 622.950387,344.207651 C618.58031,345.378609 610.732636,344.590484 599.407363,341.843275 C592.195586,337.0362 587.420681,332.998729 585.082651,329.730863 C582.74462,326.462996 579.590333,319.417831 575.61979,308.59537 L573.593197,286.851637 L387.160408,336.806153 Z M300.881129,320.667043 L305.1959,351.368232 L81.5537773,382.799083 C74.3076137,382.356149 69.3382159,381.653516 66.6455839,380.691182 C56.7537283,377.15588 51.6403531,371.792658 49.6994427,369.836561 C46.9660383,367.081771 43.5171326,361.18652 39.3527256,352.150808 C36.9376961,342.186243 35.8919136,334.745114 36.2153783,329.827422 C37.1744901,315.245869 42.825837,302.268848 44.6400288,299.835862 C53.7419095,287.629465 64.6614004,285.019318 67.7507085,284.585144 C72.2309148,283.955492 79.9240456,285.694134 90.8301009,289.801069 C97.4022881,295.451207 101.649557,300.040498 103.571907,303.568941 C105.494258,307.097384 107.766444,314.474446 110.388465,325.700126 L109.750058,347.528763 L300.881129,320.667043 Z M370.527228,368.184926 L378.02751,338.102937 L597.159079,392.738574 C603.711679,395.863715 608.056014,398.376755 610.192082,400.277693 C618.039303,407.261122 620.771244,414.149319 621.838058,416.690058 C623.340464,420.268207 624.329834,427.026171 624.806167,436.963952 C623.312552,447.107621 621.494689,454.398673 619.352577,458.837106 C613.000959,471.997596 602.899843,481.912649 600.306342,483.488866 C587.294628,491.396816 576.192474,489.726388 573.165473,488.971672 C568.775626,487.877161 562.293986,483.383223 553.720553,475.489859 C549.743506,467.789157 547.524685,461.942986 547.064091,457.951345 C546.603497,453.959705 547.260258,446.268636 549.034377,434.87814 L557.803449,414.878132 L370.527228,368.184926 Z M316.676086,307.666798 L306.582526,336.980623 L93.0466285,263.454316 C86.7913369,259.769971 82.68256,256.88786 80.7202977,254.807985 C73.5115834,247.167199 71.3903847,240.067109 70.5490699,237.44306 C69.3642375,233.747584 68.9676281,226.929106 69.3592416,216.987627 C71.7312524,207.012734 74.1776551,199.907865 76.6984499,195.673019 C84.1729111,183.116188 95.0997423,174.119235 97.8207515,172.775055 C111.472175,166.031242 122.386494,168.66293 125.336199,169.678595 C129.613948,171.151542 135.679251,176.193291 143.532108,184.803842 C146.82286,192.821863 148.52371,198.839171 148.634658,202.855765 C148.745605,206.87236 147.421022,214.476921 144.660907,225.669448 L134.182088,244.829075 L316.676086,307.666798 Z M399.74738,307.878232 L374.987358,289.220216 L510.901251,108.856387 C516.338264,104.045777 520.348996,101.028719 522.933447,99.8052134 C532.427881,95.3104513 539.835954,95.4871199 542.591554,95.4978578 C546.472294,95.5129801 553.079611,97.2428076 562.413504,100.68734 C571.167199,106.025668 577.168352,110.547861 580.416961,114.253918 C590.049482,125.242827 595.229516,138.415073 595.667069,141.418281 C597.862294,156.485509 591.9867,166.052407 590.109237,168.543885 C587.386484,172.157101 580.717213,176.367561 570.101426,181.175265 C561.458937,181.827251 555.210546,181.585405 551.356253,180.449727 C547.50196,179.314048 540.678911,175.704356 530.887108,169.62065 L515.903353,153.73405 L399.74738,307.878232 Z M352.322466,289.263033 L322.674239,298.327406 L256.645018,82.3555572 C255.948948,75.1293158 255.865546,70.1111835 256.394812,67.3011601 C258.339161,56.9780465 262.836445,51.0886327 264.464833,48.8656172 C266.758109,45.7349214 272.041252,41.406257 280.314263,35.879624 C289.778354,31.9355261 296.964273,29.73857 301.872022,29.2887557 C316.424089,27.9550019 330.125407,31.5067179 332.812241,32.9179712 C346.292206,39.9982913 350.578401,50.3750284 351.490504,53.3583822 C352.813263,57.6849305 352.299497,65.5553295 349.949209,76.9695794 C345.396749,84.3447284 341.52838,89.2576296 338.344099,91.7082829 C335.159819,94.1589362 328.22903,97.5571744 317.551731,101.902998 L295.891971,104.687201 L352.322466,289.263033 Z M382.807055,293.045985 L353.898025,289.496403 L381.420995,65.3397981 C383.637334,58.4445053 385.518839,53.8160551 387.065512,51.4544475 C392.747487,42.7786683 398.889533,39.1831995 401.148705,37.7984156 C404.330319,35.84821 410.537733,33.9960166 419.770944,32.2418354 C429.407949,32.4128383 436.414707,33.27316 440.791219,34.8228006 C453.768106,39.4176725 464.1154,48.1461518 465.866346,50.5123179 C474.650917,62.3834776 474.28196,73.5985942 473.901768,76.6950091 C473.350402,81.185522 469.847654,88.1871229 463.393522,97.6998118 C456.626038,102.633719 451.402427,105.586359 447.722687,106.55773 C444.042948,107.529101 436.7871,107.870767 425.955145,107.582728 L406.328987,101.475222 L382.807055,293.045985 Z M338.167038,298.273535 L317.023106,320.947626 L151.854199,166.925129 C147.638265,161.015055 145.05697,156.710926 144.110316,154.012742 C140.632615,144.100489 141.58267,136.751465 141.881388,134.012083 C142.302075,130.154183 144.713079,123.763878 149.1144,114.841168 C155.338494,106.693434 160.463205,101.197854 164.488533,98.3544292 C176.424116,89.9233308 190.065663,86.1485482 193.098156,86.0273124 C208.312308,85.4190672 217.212631,92.2624873 219.494212,94.390096 C222.803029,97.4756175 226.293295,104.548466 229.96501,115.60864 C229.710039,124.271936 228.816383,130.460819 227.284042,134.175287 C225.751701,137.889755 221.448581,144.29811 214.37468,153.400353 L197.00888,166.641423 L338.167038,298.273535 Z" id="Combined-Shape" fill="#F5A623"></path>
        <ellipse id="Oval" fill="#FFFFFF" cx="332.5" cy="346" rx="82.5" ry="97"></ellipse>
    </g>
</svg>