<?xml version="1.0" encoding="UTF-8"?>
<svg width="1343px" height="1257px" viewBox="0 0 1343 1257" version="1.1" xmlns="http://www.w3.org/2000/svg" xmlns:xlink="http://www.w3.org/1999/xlink">
    <!-- Generator: Sketch 50.2 (55047) - http://www.bohemiancoding.com/sketch -->
    <title>Artboard</title>
    <desc>Created with Sketch.</desc>
    <defs></defs>
    <g id="Artboard" stroke="none" stroke-width="1" fill="none" fill-rule="evenodd">
        <path d="M989.007496,323.475807 C969.129385,323.475807 953.014992,308.01875 953.014992,288.951505 C953.014992,269.884259 969.129385,254.427203 989.007496,254.427203 C1008.88561,254.427203 1025,269.884259 1025,288.951505 C1025,308.01875 1008.88561,323.475807 989.007496,323.475807 Z M586.14837,141.992734 C616.440295,137.403017 638.031095,137.403017 650.920771,141.992734 C655.638043,143.672447 683.011675,157.955702 688.351671,179.085207 C694.458347,203.248343 678.156897,234.629828 676.510105,236.484105 C667.939084,246.135018 647.969947,253.698268 616.602694,259.173854 C582.846138,255.510869 560.57287,247.94762 549.78289,236.484105 C538.992911,225.02059 533.032549,202.587803 531.901805,169.185744 C535.299384,139.38461 541.259746,116.806211 549.78289,101.450547 C558.306035,86.0948821 572.079024,69.8491031 591.101859,52.7132093 C607.961091,41.9778057 623.829455,34.0605865 638.70695,28.9615516 C653.584445,23.8625167 673.921559,20.8753328 699.71829,20 C728.506695,22.4964438 749.652501,25.4836277 763.155707,28.9615516 C771.062479,30.9980422 780.895927,32.5523888 796.974653,38.380017 C804.561694,41.1298904 818.709034,46.9969218 839.416672,55.9811114 C857.71789,70.1512534 869.147925,79.4932359 873.706776,84.0070591 C891.038819,101.167911 891.815212,109.602637 898.714355,122.964694 C908.335523,141.59869 915.626589,171.673957 920.587555,213.190495 C919.240885,252.53846 915.653115,280.853537 909.824246,298.135725 C903.995378,315.417914 888.439818,343.861472 863.157567,383.466399 C842.62562,408.077362 821.516184,429.985518 799.82926,449.190868 C778.142336,468.396217 747.602435,492.227306 708.209559,520.684135 L518,623 L666.183233,501.000842 C691.81338,474.288285 710.649146,453.634691 722.690531,439.04006 C734.731916,424.445429 748.220308,405.920875 763.155707,383.466399 C782.52179,346.620737 794.746307,321.268745 799.82926,307.410423 C804.912212,293.552101 809.520475,273.010671 813.654047,245.786131 C820.206173,213.053375 821.212772,187.519913 816.673844,169.185744 C813.996851,158.372522 808.496037,135.663171 799.82926,118.418765 C795.810575,110.422735 789.451891,100.574759 780.753205,88.8748383 C762.858114,72.6611255 747.647393,61.6965499 735.121041,55.9811114 C722.594689,50.2656729 707.004899,47.364143 688.351671,47.2765219 L644.161946,52.7132093 C615.79423,68.3793459 599.318885,81.7455209 594.735912,92.8117343 C590.152939,103.877948 587.290425,120.271614 586.14837,141.992734 Z M989.007496,157.358876 C969.129385,157.358876 953.014992,141.901819 953.014992,122.834574 C953.014992,103.767328 969.129385,88.3102717 989.007496,88.3102717 C1008.88561,88.3102717 1025,103.767328 1025,122.834574 C1025,141.901819 1008.88561,157.358876 989.007496,157.358876 Z" id="Combined-Shape" fill="#6A10BA" transform="translate(771.500000, 321.500000) rotate(-90.000000) translate(-771.500000, -321.500000) "></path>
        <path d="M1195.0075,665.475807 C1175.12938,665.475807 1159.01499,650.01875 1159.01499,630.951505 C1159.01499,611.884259 1175.12938,596.427203 1195.0075,596.427203 C1214.88561,596.427203 1231,611.884259 1231,630.951505 C1231,650.01875 1214.88561,665.475807 1195.0075,665.475807 Z M792.14837,483.992734 C822.440295,479.403017 844.031095,479.403017 856.920771,483.992734 C861.638043,485.672447 889.011675,499.955702 894.351671,521.085207 C900.458347,545.248343 884.156897,576.629828 882.510105,578.484105 C873.939084,588.135018 853.969947,595.698268 822.602694,601.173854 C788.846138,597.510869 766.57287,589.94762 755.78289,578.484105 C744.992911,567.02059 739.032549,544.587803 737.901805,511.185744 C741.299384,481.38461 747.259746,458.806211 755.78289,443.450547 C764.306035,428.094882 778.079024,411.849103 797.101859,394.713209 C813.961091,383.977806 829.829455,376.060586 844.70695,370.961552 C859.584445,365.862517 879.921559,362.875333 905.71829,362 C934.506695,364.496444 955.652501,367.483628 969.155707,370.961552 C977.062479,372.998042 986.895927,374.552389 1002.97465,380.380017 C1010.56169,383.12989 1024.70903,388.996922 1045.41667,397.981111 C1063.71789,412.151253 1075.14792,421.493236 1079.70678,426.007059 C1097.03882,443.167911 1097.81521,451.602637 1104.71435,464.964694 C1114.33552,483.59869 1121.62659,513.673957 1126.58756,555.190495 C1125.24088,594.53846 1121.65311,622.853537 1115.82425,640.135725 C1109.99538,657.417914 1094.43982,685.861472 1069.15757,725.466399 C1048.62562,750.077362 1027.51618,771.985518 1005.82926,791.190868 C984.142336,810.396217 953.602435,834.227306 914.209559,862.684135 L724,965 L872.183233,843.000842 C897.81338,816.288285 916.649146,795.634691 928.690531,781.04006 C940.731916,766.445429 954.220308,747.920875 969.155707,725.466399 C988.52179,688.620737 1000.74631,663.268745 1005.82926,649.410423 C1010.91221,635.552101 1015.52047,615.010671 1019.65405,587.786131 C1026.20617,555.053375 1027.21277,529.519913 1022.67384,511.185744 C1019.99685,500.372522 1014.49604,477.663171 1005.82926,460.418765 C1001.81058,452.422735 995.451891,442.574759 986.753205,430.874838 C968.858114,414.661126 953.647393,403.69655 941.121041,397.981111 C928.594689,392.265673 913.004899,389.364143 894.351671,389.276522 L850.161946,394.713209 C821.79423,410.379346 805.318885,423.745521 800.735912,434.811734 C796.152939,445.877948 793.290425,462.271614 792.14837,483.992734 Z M1195.0075,499.358876 C1175.12938,499.358876 1159.01499,483.901819 1159.01499,464.834574 C1159.01499,445.767328 1175.12938,430.310272 1195.0075,430.310272 C1214.88561,430.310272 1231,445.767328 1231,464.834574 C1231,483.901819 1214.88561,499.358876 1195.0075,499.358876 Z" id="Combined-Shape" fill="#6A10BA" transform="translate(977.500000, 663.500000) rotate(-15.000000) translate(-977.500000, -663.500000) "></path>
        <path d="M989.007496,968.475807 C969.129385,968.475807 953.014992,953.01875 953.014992,933.951505 C953.014992,914.884259 969.129385,899.427203 989.007496,899.427203 C1008.88561,899.427203 1025,914.884259 1025,933.951505 C1025,953.01875 1008.88561,968.475807 989.007496,968.475807 Z M586.14837,786.992734 C616.440295,782.403017 638.031095,782.403017 650.920771,786.992734 C655.638043,788.672447 683.011675,802.955702 688.351671,824.085207 C694.458347,848.248343 678.156897,879.629828 676.510105,881.484105 C667.939084,891.135018 647.969947,898.698268 616.602694,904.173854 C582.846138,900.510869 560.57287,892.94762 549.78289,881.484105 C538.992911,870.02059 533.032549,847.587803 531.901805,814.185744 C535.299384,784.38461 541.259746,761.806211 549.78289,746.450547 C558.306035,731.094882 572.079024,714.849103 591.101859,697.713209 C607.961091,686.977806 623.829455,679.060586 638.70695,673.961552 C653.584445,668.862517 673.921559,665.875333 699.71829,665 C728.506695,667.496444 749.652501,670.483628 763.155707,673.961552 C771.062479,675.998042 780.895927,677.552389 796.974653,683.380017 C804.561694,686.12989 818.709034,691.996922 839.416672,700.981111 C857.71789,715.151253 869.147925,724.493236 873.706776,729.007059 C891.038819,746.167911 891.815212,754.602637 898.714355,767.964694 C908.335523,786.59869 915.626589,816.673957 920.587555,858.190495 C919.240885,897.53846 915.653115,925.853537 909.824246,943.135725 C903.995378,960.417914 888.439818,988.861472 863.157567,1028.4664 C842.62562,1053.07736 821.516184,1074.98552 799.82926,1094.19087 C778.142336,1113.39622 747.602435,1137.22731 708.209559,1165.68413 L518,1268 L666.183233,1146.00084 C691.81338,1119.28829 710.649146,1098.63469 722.690531,1084.04006 C734.731916,1069.44543 748.220308,1050.92088 763.155707,1028.4664 C782.52179,991.620737 794.746307,966.268745 799.82926,952.410423 C804.912212,938.552101 809.520475,918.010671 813.654047,890.786131 C820.206173,858.053375 821.212772,832.519913 816.673844,814.185744 C813.996851,803.372522 808.496037,780.663171 799.82926,763.418765 C795.810575,755.422735 789.451891,745.574759 780.753205,733.874838 C762.858114,717.661126 747.647393,706.69655 735.121041,700.981111 C722.594689,695.265673 707.004899,692.364143 688.351671,692.276522 L644.161946,697.713209 C615.79423,713.379346 599.318885,726.745521 594.735912,737.811734 C590.152939,748.877948 587.290425,765.271614 586.14837,786.992734 Z M989.007496,802.358876 C969.129385,802.358876 953.014992,786.901819 953.014992,767.834574 C953.014992,748.767328 969.129385,733.310272 989.007496,733.310272 C1008.88561,733.310272 1025,748.767328 1025,767.834574 C1025,786.901819 1008.88561,802.358876 989.007496,802.358876 Z" id="Combined-Shape" fill="#6A10BA" transform="translate(771.500000, 966.500000) rotate(47.000000) translate(-771.500000, -966.500000) "></path>
        <path d="M614.007496,464.475807 C594.129385,464.475807 578.014992,449.01875 578.014992,429.951505 C578.014992,410.884259 594.129385,395.427203 614.007496,395.427203 C633.885607,395.427203 650,410.884259 650,429.951505 C650,449.01875 633.885607,464.475807 614.007496,464.475807 Z M211.14837,282.992734 C241.440295,278.403017 263.031095,278.403017 275.920771,282.992734 C280.638043,284.672447 308.011675,298.955702 313.351671,320.085207 C319.458347,344.248343 303.156897,375.629828 301.510105,377.484105 C292.939084,387.135018 272.969947,394.698268 241.602694,400.173854 C207.846138,396.510869 185.57287,388.94762 174.78289,377.484105 C163.992911,366.02059 158.032549,343.587803 156.901805,310.185744 C160.299384,280.38461 166.259746,257.806211 174.78289,242.450547 C183.306035,227.094882 197.079024,210.849103 216.101859,193.713209 C232.961091,182.977806 248.829455,175.060586 263.70695,169.961552 C278.584445,164.862517 298.921559,161.875333 324.71829,161 C353.506695,163.496444 374.652501,166.483628 388.155707,169.961552 C396.062479,171.998042 405.895927,173.552389 421.974653,179.380017 C429.561694,182.12989 443.709034,187.996922 464.416672,196.981111 C482.71789,211.151253 494.147925,220.493236 498.706776,225.007059 C516.038819,242.167911 516.815212,250.602637 523.714355,263.964694 C533.335523,282.59869 540.626589,312.673957 545.587555,354.190495 C544.240885,393.53846 540.653115,421.853537 534.824246,439.135725 C528.995378,456.417914 513.439818,484.861472 488.157567,524.466399 C467.62562,549.077362 446.516184,570.985518 424.82926,590.190868 C403.142336,609.396217 372.602435,633.227306 333.209559,661.684135 L143,764 L291.183233,642.000842 C316.81338,615.288285 335.649146,594.634691 347.690531,580.04006 C359.731916,565.445429 373.220308,546.920875 388.155707,524.466399 C407.52179,487.620737 419.746307,462.268745 424.82926,448.410423 C429.912212,434.552101 434.520475,414.010671 438.654047,386.786131 C445.206173,354.053375 446.212772,328.519913 441.673844,310.185744 C438.996851,299.372522 433.496037,276.663171 424.82926,259.418765 C420.810575,251.422735 414.451891,241.574759 405.753205,229.874838 C387.858114,213.661126 372.647393,202.69655 360.121041,196.981111 C347.594689,191.265673 332.004899,188.364143 313.351671,188.276522 L269.161946,193.713209 C240.79423,209.379346 224.318885,222.745521 219.735912,233.811734 C215.152939,244.877948 212.290425,261.271614 211.14837,282.992734 Z M614.007496,298.358876 C594.129385,298.358876 578.014992,282.901819 578.014992,263.834574 C578.014992,244.767328 594.129385,229.310272 614.007496,229.310272 C633.885607,229.310272 650,244.767328 650,263.834574 C650,282.901819 633.885607,298.358876 614.007496,298.358876 Z" id="Combined-Shape" fill="#6A10BA" transform="translate(396.500000, 462.500000) rotate(187.000000) translate(-396.500000, -462.500000) "></path>
        <path d="M614.007496,831.475807 C594.129385,831.475807 578.014992,816.01875 578.014992,796.951505 C578.014992,777.884259 594.129385,762.427203 614.007496,762.427203 C633.885607,762.427203 650,777.884259 650,796.951505 C650,816.01875 633.885607,831.475807 614.007496,831.475807 Z M211.14837,649.992734 C241.440295,645.403017 263.031095,645.403017 275.920771,649.992734 C280.638043,651.672447 308.011675,665.955702 313.351671,687.085207 C319.458347,711.248343 303.156897,742.629828 301.510105,744.484105 C292.939084,754.135018 272.969947,761.698268 241.602694,767.173854 C207.846138,763.510869 185.57287,755.94762 174.78289,744.484105 C163.992911,733.02059 158.032549,710.587803 156.901805,677.185744 C160.299384,647.38461 166.259746,624.806211 174.78289,609.450547 C183.306035,594.094882 197.079024,577.849103 216.101859,560.713209 C232.961091,549.977806 248.829455,542.060586 263.70695,536.961552 C278.584445,531.862517 298.921559,528.875333 324.71829,528 C353.506695,530.496444 374.652501,533.483628 388.155707,536.961552 C396.062479,538.998042 405.895927,540.552389 421.974653,546.380017 C429.561694,549.12989 443.709034,554.996922 464.416672,563.981111 C482.71789,578.151253 494.147925,587.493236 498.706776,592.007059 C516.038819,609.167911 516.815212,617.602637 523.714355,630.964694 C533.335523,649.59869 540.626589,679.673957 545.587555,721.190495 C544.240885,760.53846 540.653115,788.853537 534.824246,806.135725 C528.995378,823.417914 513.439818,851.861472 488.157567,891.466399 C467.62562,916.077362 446.516184,937.985518 424.82926,957.190868 C403.142336,976.396217 372.602435,1000.22731 333.209559,1028.68413 L143,1131 L291.183233,1009.00084 C316.81338,982.288285 335.649146,961.634691 347.690531,947.04006 C359.731916,932.445429 373.220308,913.920875 388.155707,891.466399 C407.52179,854.620737 419.746307,829.268745 424.82926,815.410423 C429.912212,801.552101 434.520475,781.010671 438.654047,753.786131 C445.206173,721.053375 446.212772,695.519913 441.673844,677.185744 C438.996851,666.372522 433.496037,643.663171 424.82926,626.418765 C420.810575,618.422735 414.451891,608.574759 405.753205,596.874838 C387.858114,580.661126 372.647393,569.69655 360.121041,563.981111 C347.594689,558.265673 332.004899,555.364143 313.351671,555.276522 L269.161946,560.713209 C240.79423,576.379346 224.318885,589.745521 219.735912,600.811734 C215.152939,611.877948 212.290425,628.271614 211.14837,649.992734 Z M614.007496,665.358876 C594.129385,665.358876 578.014992,649.901819 578.014992,630.834574 C578.014992,611.767328 594.129385,596.310272 614.007496,596.310272 C633.885607,596.310272 650,611.767328 650,630.834574 C650,649.901819 633.885607,665.358876 614.007496,665.358876 Z" id="Combined-Shape" fill="#6A10BA" transform="translate(396.500000, 829.500000) rotate(126.000000) translate(-396.500000, -829.500000) "></path>
    </g>
</svg>