<?xml version="1.0" encoding="UTF-8"?>
<svg width="878px" height="851px" viewBox="0 0 878 851" version="1.1" xmlns="http://www.w3.org/2000/svg" xmlns:xlink="http://www.w3.org/1999/xlink">
    <!-- Generator: Sketch 50.2 (55047) - http://www.bohemiancoding.com/sketch -->
    <title>Artboard</title>
    <desc>Created with Sketch.</desc>
    <defs></defs>
    <g id="Artboard" stroke="none" stroke-width="1" fill="none" fill-rule="evenodd">
        <path d="M445.274318,98 L448.29558,294.123729 L435.999556,291.135933 C431.35919,290.172954 428.14218,289.561044 426.348527,289.300205 C424.554873,289.039365 421.089887,288.77573 415.95357,288.5093 C413.821397,288.850223 411.856444,289.113857 410.058711,289.300205 C407.362111,289.579725 398.685268,292.852839 394.612382,294.895076 C391.897125,296.256568 389.397326,298.104583 387.112984,300.439122 C385.017474,302.326981 383.362341,304.19309 382.147586,306.03745 C380.932831,307.88181 379.654157,310.470094 378.311562,313.802302 C377.437187,319.055001 377,322.964476 377,325.530728 C377,328.09698 377.772235,332.857981 379.316704,339.813731 C380.178944,342.144422 381.122571,344.001617 382.147586,345.385316 C383.172601,346.769015 384.827733,348.419965 387.112984,350.338166 C389.403367,352.251142 391.128395,353.621526 392.288069,354.44932 C393.447742,355.277113 395.539188,356.630989 398.562407,358.510947 C401.554477,360.177572 403.740097,361.253752 405.119269,361.739489 C406.498441,362.225225 409.226541,362.879629 413.303571,363.702701 C419.775035,364.567567 424.546084,365 427.616718,365 C430.687351,365 435.872224,364.567567 443.171335,363.702701 C447.52524,362.166202 450.32053,361.068097 451.557204,360.408386 C452.793879,359.748674 454.491263,358.450134 456.649358,356.512765 C458.707497,355.034847 460.348878,353.717223 461.5735,352.559895 C462.798123,351.402567 464.357423,349.69539 466.251401,347.438366 C468.776813,343.960373 470.486317,341.418829 471.379913,339.813731 C472.273508,338.208633 472.991113,336.390549 473.532725,334.359479 C474.85988,327.704035 475.646076,323.42625 475.891311,321.526124 C476.136547,319.625998 476.136547,317.812216 475.891311,316.084778 L473.532725,137.500647 L494.056754,140.381494 C497.958074,141.272689 500.875111,142.045361 502.807865,142.699512 C504.74062,143.353663 507.958071,144.657241 512.460219,146.610245 C516.541772,148.667253 519.377462,150.214971 520.967291,151.253398 C522.55712,152.291824 525.810838,154.721518 530.728445,158.542478 C533.976512,162.085515 536.140144,164.926802 537.219339,167.066338 C538.002863,168.619698 543.347658,175.343295 541.820776,188.271609 C541.436653,191.52403 538.790475,197.384975 533.882242,205.854446 L528.591652,216.543907 C532.286853,215.107817 535.162749,213.818472 537.219339,212.675872 C539.275929,211.533273 541.751031,209.849713 544.644645,207.625192 C547.609083,205.075757 549.804629,203.057281 551.231282,201.569764 C552.657934,200.082247 554.591267,197.795696 557.031281,194.710113 C558.733716,191.737342 559.789769,189.591174 560.199441,188.271609 C560.609112,186.952043 561.209299,183.763409 562,178.705705 C562,175.370976 562,172.924581 562,171.366518 C562,169.808455 562,166.339726 562,160.960332 C561.506387,157.809576 560.9062,155.499547 560.199441,154.030248 C559.492681,152.560948 557.791983,150.087614 555.097348,146.610245 C547.048444,137.97738 542.62292,133.235122 541.820776,132.38347 C538.913816,129.297091 535.527657,127.962407 533.882242,126.797496 C530.392543,124.326879 514.163036,115.508973 510.384502,113.341844 C507.86548,111.897091 503.866735,110.044567 498.388268,107.784271 L485.969031,101.794228 L471.379913,98 C471.379913,98 462.678048,98 445.274318,98 Z" id="Path" stroke="#4A90E2" stroke-width="5" fill="#4A90E2" transform="translate(469.500000, 231.500000) rotate(-2.000000) translate(-469.500000, -231.500000) "></path>
        <path d="M266.274318,216 L269.29558,412.123729 L256.999556,409.135933 C252.35919,408.172954 249.14218,407.561044 247.348527,407.300205 C245.554873,407.039365 242.089887,406.77573 236.95357,406.5093 C234.821397,406.850223 232.856444,407.113857 231.058711,407.300205 C228.362111,407.579725 219.685268,410.852839 215.612382,412.895076 C212.897125,414.256568 210.397326,416.104583 208.112984,418.439122 C206.017474,420.326981 204.362341,422.19309 203.147586,424.03745 C201.932831,425.88181 200.654157,428.470094 199.311562,431.802302 C198.437187,437.055001 198,440.964476 198,443.530728 C198,446.09698 198.772235,450.857981 200.316704,457.813731 C201.178944,460.144422 202.122571,462.001617 203.147586,463.385316 C204.172601,464.769015 205.827733,466.419965 208.112984,468.338166 C210.403367,470.251142 212.128395,471.621526 213.288069,472.44932 C214.447742,473.277113 216.539188,474.630989 219.562407,476.510947 C222.554477,478.177572 224.740097,479.253752 226.119269,479.739489 C227.498441,480.225225 230.226541,480.879629 234.303571,481.702701 C240.775035,482.567567 245.546084,483 248.616718,483 C251.687351,483 256.872224,482.567567 264.171335,481.702701 C268.52524,480.166202 271.32053,479.068097 272.557204,478.408386 C273.793879,477.748674 275.491263,476.450134 277.649358,474.512765 C279.707497,473.034847 281.348878,471.717223 282.5735,470.559895 C283.798123,469.402567 285.357423,467.69539 287.251401,465.438366 C289.776813,461.960373 291.486317,459.418829 292.379913,457.813731 C293.273508,456.208633 293.991113,454.390549 294.532725,452.359479 C295.85988,445.704035 296.646076,441.42625 296.891311,439.526124 C297.136547,437.625998 297.136547,435.812216 296.891311,434.084778 L294.532725,255.500647 L315.056754,258.381494 C318.958074,259.272689 321.875111,260.045361 323.807865,260.699512 C325.74062,261.353663 328.958071,262.657241 333.460219,264.610245 C337.541772,266.667253 340.377462,268.214971 341.967291,269.253398 C343.55712,270.291824 346.810838,272.721518 351.728445,276.542478 C354.976512,280.085515 357.140144,282.926802 358.219339,285.066338 C359.002863,286.619698 364.347658,293.343295 362.820776,306.271609 C362.436653,309.52403 359.790475,315.384975 354.882242,323.854446 L349.591652,334.543907 C353.286853,333.107817 356.162749,331.818472 358.219339,330.675872 C360.275929,329.533273 362.751031,327.849713 365.644645,325.625192 C368.609083,323.075757 370.804629,321.057281 372.231282,319.569764 C373.657934,318.082247 375.591267,315.795696 378.031281,312.710113 C379.733716,309.737342 380.789769,307.591174 381.199441,306.271609 C381.609112,304.952043 382.209299,301.763409 383,296.705705 C383,293.370976 383,290.924581 383,289.366518 C383,287.808455 383,284.339726 383,278.960332 C382.506387,275.809576 381.9062,273.499547 381.199441,272.030248 C380.492681,270.560948 378.791983,268.087614 376.097348,264.610245 C368.048444,255.97738 363.62292,251.235122 362.820776,250.38347 C359.913816,247.297091 356.527657,245.962407 354.882242,244.797496 C351.392543,242.326879 335.163036,233.508973 331.384502,231.341844 C328.86548,229.897091 324.866735,228.044567 319.388268,225.784271 L306.969031,219.794228 L292.379913,216 C292.379913,216 283.678048,216 266.274318,216 Z" id="Path" stroke="#4A90E2" stroke-width="5" fill="#4A90E2" transform="translate(290.500000, 349.500000) rotate(-71.000000) translate(-290.500000, -349.500000) "></path>
        <path d="M583.274318,229 L586.29558,425.123729 L573.999556,422.135933 C569.35919,421.172954 566.14218,420.561044 564.348527,420.300205 C562.554873,420.039365 559.089887,419.77573 553.95357,419.5093 C551.821397,419.850223 549.856444,420.113857 548.058711,420.300205 C545.362111,420.579725 536.685268,423.852839 532.612382,425.895076 C529.897125,427.256568 527.397326,429.104583 525.112984,431.439122 C523.017474,433.326981 521.362341,435.19309 520.147586,437.03745 C518.932831,438.88181 517.654157,441.470094 516.311562,444.802302 C515.437187,450.055001 515,453.964476 515,456.530728 C515,459.09698 515.772235,463.857981 517.316704,470.813731 C518.178944,473.144422 519.122571,475.001617 520.147586,476.385316 C521.172601,477.769015 522.827733,479.419965 525.112984,481.338166 C527.403367,483.251142 529.128395,484.621526 530.288069,485.44932 C531.447742,486.277113 533.539188,487.630989 536.562407,489.510947 C539.554477,491.177572 541.740097,492.253752 543.119269,492.739489 C544.498441,493.225225 547.226541,493.879629 551.303571,494.702701 C557.775035,495.567567 562.546084,496 565.616718,496 C568.687351,496 573.872224,495.567567 581.171335,494.702701 C585.52524,493.166202 588.32053,492.068097 589.557204,491.408386 C590.793879,490.748674 592.491263,489.450134 594.649358,487.512765 C596.707497,486.034847 598.348878,484.717223 599.5735,483.559895 C600.798123,482.402567 602.357423,480.69539 604.251401,478.438366 C606.776813,474.960373 608.486317,472.418829 609.379913,470.813731 C610.273508,469.208633 610.991113,467.390549 611.532725,465.359479 C612.85988,458.704035 613.646076,454.42625 613.891311,452.526124 C614.136547,450.625998 614.136547,448.812216 613.891311,447.084778 L611.532725,268.500647 L632.056754,271.381494 C635.958074,272.272689 638.875111,273.045361 640.807865,273.699512 C642.74062,274.353663 645.958071,275.657241 650.460219,277.610245 C654.541772,279.667253 657.377462,281.214971 658.967291,282.253398 C660.55712,283.291824 663.810838,285.721518 668.728445,289.542478 C671.976512,293.085515 674.140144,295.926802 675.219339,298.066338 C676.002863,299.619698 681.347658,306.343295 679.820776,319.271609 C679.436653,322.52403 676.790475,328.384975 671.882242,336.854446 L666.591652,347.543907 C670.286853,346.107817 673.162749,344.818472 675.219339,343.675872 C677.275929,342.533273 679.751031,340.849713 682.644645,338.625192 C685.609083,336.075757 687.804629,334.057281 689.231282,332.569764 C690.657934,331.082247 692.591267,328.795696 695.031281,325.710113 C696.733716,322.737342 697.789769,320.591174 698.199441,319.271609 C698.609112,317.952043 699.209299,314.763409 700,309.705705 C700,306.370976 700,303.924581 700,302.366518 C700,300.808455 700,297.339726 700,291.960332 C699.506387,288.809576 698.9062,286.499547 698.199441,285.030248 C697.492681,283.560948 695.791983,281.087614 693.097348,277.610245 C685.048444,268.97738 680.62292,264.235122 679.820776,263.38347 C676.913816,260.297091 673.527657,258.962407 671.882242,257.797496 C668.392543,255.326879 652.163036,246.508973 648.384502,244.341844 C645.86548,242.897091 641.866735,241.044567 636.388268,238.784271 L623.969031,232.794228 L609.379913,229 C609.379913,229 600.678048,229 583.274318,229 Z" id="Path" stroke="#4A90E2" stroke-width="5" fill="#4A90E2" transform="translate(607.500000, 362.500000) rotate(47.000000) translate(-607.500000, -362.500000) "></path>
        <path d="M537.274318,462 L540.29558,658.123729 L527.999556,655.135933 C523.35919,654.172954 520.14218,653.561044 518.348527,653.300205 C516.554873,653.039365 513.089887,652.77573 507.95357,652.5093 C505.821397,652.850223 503.856444,653.113857 502.058711,653.300205 C499.362111,653.579725 490.685268,656.852839 486.612382,658.895076 C483.897125,660.256568 481.397326,662.104583 479.112984,664.439122 C477.017474,666.326981 475.362341,668.19309 474.147586,670.03745 C472.932831,671.88181 471.654157,674.470094 470.311562,677.802302 C469.437187,683.055001 469,686.964476 469,689.530728 C469,692.09698 469.772235,696.857981 471.316704,703.813731 C472.178944,706.144422 473.122571,708.001617 474.147586,709.385316 C475.172601,710.769015 476.827733,712.419965 479.112984,714.338166 C481.403367,716.251142 483.128395,717.621526 484.288069,718.44932 C485.447742,719.277113 487.539188,720.630989 490.562407,722.510947 C493.554477,724.177572 495.740097,725.253752 497.119269,725.739489 C498.498441,726.225225 501.226541,726.879629 505.303571,727.702701 C511.775035,728.567567 516.546084,729 519.616718,729 C522.687351,729 527.872224,728.567567 535.171335,727.702701 C539.52524,726.166202 542.32053,725.068097 543.557204,724.408386 C544.793879,723.748674 546.491263,722.450134 548.649358,720.512765 C550.707497,719.034847 552.348878,717.717223 553.5735,716.559895 C554.798123,715.402567 556.357423,713.69539 558.251401,711.438366 C560.776813,707.960373 562.486317,705.418829 563.379913,703.813731 C564.273508,702.208633 564.991113,700.390549 565.532725,698.359479 C566.85988,691.704035 567.646076,687.42625 567.891311,685.526124 C568.136547,683.625998 568.136547,681.812216 567.891311,680.084778 L565.532725,501.500647 L586.056754,504.381494 C589.958074,505.272689 592.875111,506.045361 594.807865,506.699512 C596.74062,507.353663 599.958071,508.657241 604.460219,510.610245 C608.541772,512.667253 611.377462,514.214971 612.967291,515.253398 C614.55712,516.291824 617.810838,518.721518 622.728445,522.542478 C625.976512,526.085515 628.140144,528.926802 629.219339,531.066338 C630.002863,532.619698 635.347658,539.343295 633.820776,552.271609 C633.436653,555.52403 630.790475,561.384975 625.882242,569.854446 L620.591652,580.543907 C624.286853,579.107817 627.162749,577.818472 629.219339,576.675872 C631.275929,575.533273 633.751031,573.849713 636.644645,571.625192 C639.609083,569.075757 641.804629,567.057281 643.231282,565.569764 C644.657934,564.082247 646.591267,561.795696 649.031281,558.710113 C650.733716,555.737342 651.789769,553.591174 652.199441,552.271609 C652.609112,550.952043 653.209299,547.763409 654,542.705705 C654,539.370976 654,536.924581 654,535.366518 C654,533.808455 654,530.339726 654,524.960332 C653.506387,521.809576 652.9062,519.499547 652.199441,518.030248 C651.492681,516.560948 649.791983,514.087614 647.097348,510.610245 C639.048444,501.97738 634.62292,497.235122 633.820776,496.38347 C630.913816,493.297091 627.527657,491.962407 625.882242,490.797496 C622.392543,488.326879 606.163036,479.508973 602.384502,477.341844 C599.86548,475.897091 595.866735,474.044567 590.388268,471.784271 L577.969031,465.794228 L563.379913,462 C563.379913,462 554.678048,462 537.274318,462 Z" id="Path" stroke="#4A90E2" stroke-width="5" fill="#4A90E2" transform="translate(561.500000, 595.500000) scale(-1, -1) rotate(-58.000000) translate(-561.500000, -595.500000) "></path>
        <path d="M293.274318,448 L296.29558,644.123729 L283.999556,641.135933 C279.35919,640.172954 276.14218,639.561044 274.348527,639.300205 C272.554873,639.039365 269.089887,638.77573 263.95357,638.5093 C261.821397,638.850223 259.856444,639.113857 258.058711,639.300205 C255.362111,639.579725 246.685268,642.852839 242.612382,644.895076 C239.897125,646.256568 237.397326,648.104583 235.112984,650.439122 C233.017474,652.326981 231.362341,654.19309 230.147586,656.03745 C228.932831,657.88181 227.654157,660.470094 226.311562,663.802302 C225.437187,669.055001 225,672.964476 225,675.530728 C225,678.09698 225.772235,682.857981 227.316704,689.813731 C228.178944,692.144422 229.122571,694.001617 230.147586,695.385316 C231.172601,696.769015 232.827733,698.419965 235.112984,700.338166 C237.403367,702.251142 239.128395,703.621526 240.288069,704.44932 C241.447742,705.277113 243.539188,706.630989 246.562407,708.510947 C249.554477,710.177572 251.740097,711.253752 253.119269,711.739489 C254.498441,712.225225 257.226541,712.879629 261.303571,713.702701 C267.775035,714.567567 272.546084,715 275.616718,715 C278.687351,715 283.872224,714.567567 291.171335,713.702701 C295.52524,712.166202 298.32053,711.068097 299.557204,710.408386 C300.793879,709.748674 302.491263,708.450134 304.649358,706.512765 C306.707497,705.034847 308.348878,703.717223 309.5735,702.559895 C310.798123,701.402567 312.357423,699.69539 314.251401,697.438366 C316.776813,693.960373 318.486317,691.418829 319.379913,689.813731 C320.273508,688.208633 320.991113,686.390549 321.532725,684.359479 C322.85988,677.704035 323.646076,673.42625 323.891311,671.526124 C324.136547,669.625998 324.136547,667.812216 323.891311,666.084778 L321.532725,487.500647 L342.056754,490.381494 C345.958074,491.272689 348.875111,492.045361 350.807865,492.699512 C352.74062,493.353663 355.958071,494.657241 360.460219,496.610245 C364.541772,498.667253 367.377462,500.214971 368.967291,501.253398 C370.55712,502.291824 373.810838,504.721518 378.728445,508.542478 C381.976512,512.085515 384.140144,514.926802 385.219339,517.066338 C386.002863,518.619698 391.347658,525.343295 389.820776,538.271609 C389.436653,541.52403 386.790475,547.384975 381.882242,555.854446 L376.591652,566.543907 C380.286853,565.107817 383.162749,563.818472 385.219339,562.675872 C387.275929,561.533273 389.751031,559.849713 392.644645,557.625192 C395.609083,555.075757 397.804629,553.057281 399.231282,551.569764 C400.657934,550.082247 402.591267,547.795696 405.031281,544.710113 C406.733716,541.737342 407.789769,539.591174 408.199441,538.271609 C408.609112,536.952043 409.209299,533.763409 410,528.705705 C410,525.370976 410,522.924581 410,521.366518 C410,519.808455 410,516.339726 410,510.960332 C409.506387,507.809576 408.9062,505.499547 408.199441,504.030248 C407.492681,502.560948 405.791983,500.087614 403.097348,496.610245 C395.048444,487.97738 390.62292,483.235122 389.820776,482.38347 C386.913816,479.297091 383.527657,477.962407 381.882242,476.797496 C378.392543,474.326879 362.163036,465.508973 358.384502,463.341844 C355.86548,461.897091 351.866735,460.044567 346.388268,457.784271 L333.969031,451.794228 L319.379913,448 C319.379913,448 310.678048,448 293.274318,448 Z" id="Path" stroke="#4A90E2" stroke-width="5" fill="#4A90E2" transform="translate(317.500000, 581.500000) scale(-1, -1) rotate(35.000000) translate(-317.500000, -581.500000) "></path>
        <path d="M352.047828,177 L353.288995,256.330947 L348.237655,255.1224 C346.331343,254.73288 345.009761,254.485366 344.272908,254.379858 C343.536056,254.27435 342.112602,254.167711 340.002548,254.059942 C339.126628,254.197843 338.319404,254.304482 337.580876,254.379858 C336.473083,254.492923 332.908543,255.816879 331.235357,256.642952 C330.1199,257.193668 329.092956,257.94118 328.154523,258.885487 C327.293665,259.649116 326.613718,260.403947 326.114684,261.14998 C325.61565,261.896013 325.090356,262.942959 324.538804,264.290819 C324.179601,266.415506 324,267.996867 324,269.034901 C324,270.072936 324.317242,271.998734 324.951727,274.812296 C325.305945,275.755047 325.693597,276.506272 326.114684,277.06597 C326.535771,277.625669 327.215718,278.293469 328.154523,279.069371 C329.095437,279.843158 329.804098,280.397471 330.280504,280.732309 C330.75691,281.067147 331.616099,281.614782 332.85807,282.375215 C334.087244,283.049355 334.985121,283.484664 335.5517,283.681141 C336.118278,283.877619 337.239012,284.142322 338.9139,284.47525 C341.572447,284.825083 343.532445,285 344.793895,285 C346.055344,285 348.185346,284.825083 351.1839,284.47525 C352.972531,283.853745 354.120866,283.409568 354.628906,283.142718 C355.136945,282.875868 355.834249,282.350616 356.720817,281.566961 C357.566323,280.969151 358.24062,280.43618 358.743708,279.968047 C359.246796,279.499915 359.887374,278.809371 360.66544,277.896418 C361.702907,276.489589 362.40519,275.461549 362.772289,274.812296 C363.139387,274.163043 363.434187,273.427638 363.656687,272.606082 C364.201897,269.913992 364.524874,268.183652 364.62562,267.415061 C364.726365,266.646471 364.726365,265.912806 364.62562,265.214068 L363.656687,192.97779 L372.08818,194.143076 C373.690884,194.503559 374.889235,194.816101 375.683231,195.080702 C376.477227,195.345302 377.798991,195.872592 379.648523,196.662571 C381.325268,197.494619 382.490201,198.120662 383.14332,198.5407 C383.796439,198.960738 385.133101,199.943535 387.153307,201.489092 C388.487648,202.922231 389.376491,204.071515 389.819837,204.936946 C390.141717,205.565271 392.337416,208.284928 391.710157,213.514359 C391.552355,214.829945 390.465276,217.200664 388.448921,220.626517 L386.275489,224.950344 C387.793518,224.369454 388.974967,223.847921 389.819837,223.385746 C390.664706,222.923571 391.681505,222.24258 392.870233,221.342774 C394.088056,220.311542 394.99001,219.49508 395.576094,218.893387 C396.162178,218.291695 396.956413,217.366799 397.958796,216.118698 C398.658175,214.916228 399.092013,214.048115 399.260311,213.514359 C399.428608,212.980602 399.675171,211.690817 400,209.645004 C400,208.296125 400,207.306572 400,206.676344 C400,206.046117 400,204.643035 400,202.467101 C399.797218,201.192637 399.550655,200.258244 399.260311,199.66392 C398.969966,199.069597 398.271301,198.069147 397.164316,196.662571 C393.857739,193.170626 392.039686,191.252409 391.710157,190.90792 C390.515946,189.659497 389.124875,189.119625 388.448921,188.648425 C387.015315,187.649075 380.348058,184.082281 378.795796,183.20569 C377.760954,182.621295 376.118226,181.87196 373.867613,180.957683 L368.765656,178.534744 L362.772289,177 C362.772289,177 359.197468,177 352.047828,177 Z" id="Path" stroke="#4A90E2" stroke-width="5" fill="#4A90E2" transform="translate(362.000000, 231.000000) rotate(-27.000000) translate(-362.000000, -231.000000) "></path>
        <path d="M235.047828,392 L236.288995,471.330947 L231.237655,470.1224 C229.331343,469.73288 228.009761,469.485366 227.272908,469.379858 C226.536056,469.27435 225.112602,469.167711 223.002548,469.059942 C222.126628,469.197843 221.319404,469.304482 220.580876,469.379858 C219.473083,469.492923 215.908543,470.816879 214.235357,471.642952 C213.1199,472.193668 212.092956,472.94118 211.154523,473.885487 C210.293665,474.649116 209.613718,475.403947 209.114684,476.14998 C208.61565,476.896013 208.090356,477.942959 207.538804,479.290819 C207.179601,481.415506 207,482.996867 207,484.034901 C207,485.072936 207.317242,486.998734 207.951727,489.812296 C208.305945,490.755047 208.693597,491.506272 209.114684,492.06597 C209.535771,492.625669 210.215718,493.293469 211.154523,494.069371 C212.095437,494.843158 212.804098,495.397471 213.280504,495.732309 C213.75691,496.067147 214.616099,496.614782 215.85807,497.375215 C217.087244,498.049355 217.985121,498.484664 218.5517,498.681141 C219.118278,498.877619 220.239012,499.142322 221.9139,499.47525 C224.572447,499.825083 226.532445,500 227.793895,500 C229.055344,500 231.185346,499.825083 234.1839,499.47525 C235.972531,498.853745 237.120866,498.409568 237.628906,498.142718 C238.136945,497.875868 238.834249,497.350616 239.720817,496.566961 C240.566323,495.969151 241.24062,495.43618 241.743708,494.968047 C242.246796,494.499915 242.887374,493.809371 243.66544,492.896418 C244.702907,491.489589 245.40519,490.461549 245.772289,489.812296 C246.139387,489.163043 246.434187,488.427638 246.656687,487.606082 C247.201897,484.913992 247.524874,483.183652 247.62562,482.415061 C247.726365,481.646471 247.726365,480.912806 247.62562,480.214068 L246.656687,407.97779 L255.08818,409.143076 C256.690884,409.503559 257.889235,409.816101 258.683231,410.080702 C259.477227,410.345302 260.798991,410.872592 262.648523,411.662571 C264.325268,412.494619 265.490201,413.120662 266.14332,413.5407 C266.796439,413.960738 268.133101,414.943535 270.153307,416.489092 C271.487648,417.922231 272.376491,419.071515 272.819837,419.936946 C273.141717,420.565271 275.337416,423.284928 274.710157,428.514359 C274.552355,429.829945 273.465276,432.200664 271.448921,435.626517 L269.275489,439.950344 C270.793518,439.369454 271.974967,438.847921 272.819837,438.385746 C273.664706,437.923571 274.681505,437.24258 275.870233,436.342774 C277.088056,435.311542 277.99001,434.49508 278.576094,433.893387 C279.162178,433.291695 279.956413,432.366799 280.958796,431.118698 C281.658175,429.916228 282.092013,429.048115 282.260311,428.514359 C282.428608,427.980602 282.675171,426.690817 283,424.645004 C283,423.296125 283,422.306572 283,421.676344 C283,421.046117 283,419.643035 283,417.467101 C282.797218,416.192637 282.550655,415.258244 282.260311,414.66392 C281.969966,414.069597 281.271301,413.069147 280.164316,411.662571 C276.857739,408.170626 275.039686,406.252409 274.710157,405.90792 C273.515946,404.659497 272.124875,404.119625 271.448921,403.648425 C270.015315,402.649075 263.348058,399.082281 261.795796,398.20569 C260.760954,397.621295 259.118226,396.87196 256.867613,395.957683 L251.765656,393.534744 L245.772289,392 C245.772289,392 242.197468,392 235.047828,392 Z" id="Path" stroke="#4A90E2" stroke-width="5" fill="#4A90E2" transform="translate(245.000000, 446.000000) rotate(-99.000000) translate(-245.000000, -446.000000) "></path>
        <path d="M568.047828,216 L569.288995,295.330947 L564.237655,294.1224 C562.331343,293.73288 561.009761,293.485366 560.272908,293.379858 C559.536056,293.27435 558.112602,293.167711 556.002548,293.059942 C555.126628,293.197843 554.319404,293.304482 553.580876,293.379858 C552.473083,293.492923 548.908543,294.816879 547.235357,295.642952 C546.1199,296.193668 545.092956,296.94118 544.154523,297.885487 C543.293665,298.649116 542.613718,299.403947 542.114684,300.14998 C541.61565,300.896013 541.090356,301.942959 540.538804,303.290819 C540.179601,305.415506 540,306.996867 540,308.034901 C540,309.072936 540.317242,310.998734 540.951727,313.812296 C541.305945,314.755047 541.693597,315.506272 542.114684,316.06597 C542.535771,316.625669 543.215718,317.293469 544.154523,318.069371 C545.095437,318.843158 545.804098,319.397471 546.280504,319.732309 C546.75691,320.067147 547.616099,320.614782 548.85807,321.375215 C550.087244,322.049355 550.985121,322.484664 551.5517,322.681141 C552.118278,322.877619 553.239012,323.142322 554.9139,323.47525 C557.572447,323.825083 559.532445,324 560.793895,324 C562.055344,324 564.185346,323.825083 567.1839,323.47525 C568.972531,322.853745 570.120866,322.409568 570.628906,322.142718 C571.136945,321.875868 571.834249,321.350616 572.720817,320.566961 C573.566323,319.969151 574.24062,319.43618 574.743708,318.968047 C575.246796,318.499915 575.887374,317.809371 576.66544,316.896418 C577.702907,315.489589 578.40519,314.461549 578.772289,313.812296 C579.139387,313.163043 579.434187,312.427638 579.656687,311.606082 C580.201897,308.913992 580.524874,307.183652 580.62562,306.415061 C580.726365,305.646471 580.726365,304.912806 580.62562,304.214068 L579.656687,231.97779 L588.08818,233.143076 C589.690884,233.503559 590.889235,233.816101 591.683231,234.080702 C592.477227,234.345302 593.798991,234.872592 595.648523,235.662571 C597.325268,236.494619 598.490201,237.120662 599.14332,237.5407 C599.796439,237.960738 601.133101,238.943535 603.153307,240.489092 C604.487648,241.922231 605.376491,243.071515 605.819837,243.936946 C606.141717,244.565271 608.337416,247.284928 607.710157,252.514359 C607.552355,253.829945 606.465276,256.200664 604.448921,259.626517 L602.275489,263.950344 C603.793518,263.369454 604.974967,262.847921 605.819837,262.385746 C606.664706,261.923571 607.681505,261.24258 608.870233,260.342774 C610.088056,259.311542 610.99001,258.49508 611.576094,257.893387 C612.162178,257.291695 612.956413,256.366799 613.958796,255.118698 C614.658175,253.916228 615.092013,253.048115 615.260311,252.514359 C615.428608,251.980602 615.675171,250.690817 616,248.645004 C616,247.296125 616,246.306572 616,245.676344 C616,245.046117 616,243.643035 616,241.467101 C615.797218,240.192637 615.550655,239.258244 615.260311,238.66392 C614.969966,238.069597 614.271301,237.069147 613.164316,235.662571 C609.857739,232.170626 608.039686,230.252409 607.710157,229.90792 C606.515946,228.659497 605.124875,228.119625 604.448921,227.648425 C603.015315,226.649075 596.348058,223.082281 594.795796,222.20569 C593.760954,221.621295 592.118226,220.87196 589.867613,219.957683 L584.765656,217.534744 L578.772289,216 C578.772289,216 575.197468,216 568.047828,216 Z" id="Path" stroke="#4A90E2" stroke-width="5" fill="#4A90E2" transform="translate(578.000000, 270.000000) rotate(35.000000) translate(-578.000000, -270.000000) "></path>
        <path d="M626.047828,466 L627.288995,545.330947 L622.237655,544.1224 C620.331343,543.73288 619.009761,543.485366 618.272908,543.379858 C617.536056,543.27435 616.112602,543.167711 614.002548,543.059942 C613.126628,543.197843 612.319404,543.304482 611.580876,543.379858 C610.473083,543.492923 606.908543,544.816879 605.235357,545.642952 C604.1199,546.193668 603.092956,546.94118 602.154523,547.885487 C601.293665,548.649116 600.613718,549.403947 600.114684,550.14998 C599.61565,550.896013 599.090356,551.942959 598.538804,553.290819 C598.179601,555.415506 598,556.996867 598,558.034901 C598,559.072936 598.317242,560.998734 598.951727,563.812296 C599.305945,564.755047 599.693597,565.506272 600.114684,566.06597 C600.535771,566.625669 601.215718,567.293469 602.154523,568.069371 C603.095437,568.843158 603.804098,569.397471 604.280504,569.732309 C604.75691,570.067147 605.616099,570.614782 606.85807,571.375215 C608.087244,572.049355 608.985121,572.484664 609.5517,572.681141 C610.118278,572.877619 611.239012,573.142322 612.9139,573.47525 C615.572447,573.825083 617.532445,574 618.793895,574 C620.055344,574 622.185346,573.825083 625.1839,573.47525 C626.972531,572.853745 628.120866,572.409568 628.628906,572.142718 C629.136945,571.875868 629.834249,571.350616 630.720817,570.566961 C631.566323,569.969151 632.24062,569.43618 632.743708,568.968047 C633.246796,568.499915 633.887374,567.809371 634.66544,566.896418 C635.702907,565.489589 636.40519,564.461549 636.772289,563.812296 C637.139387,563.163043 637.434187,562.427638 637.656687,561.606082 C638.201897,558.913992 638.524874,557.183652 638.62562,556.415061 C638.726365,555.646471 638.726365,554.912806 638.62562,554.214068 L637.656687,481.97779 L646.08818,483.143076 C647.690884,483.503559 648.889235,483.816101 649.683231,484.080702 C650.477227,484.345302 651.798991,484.872592 653.648523,485.662571 C655.325268,486.494619 656.490201,487.120662 657.14332,487.5407 C657.796439,487.960738 659.133101,488.943535 661.153307,490.489092 C662.487648,491.922231 663.376491,493.071515 663.819837,493.936946 C664.141717,494.565271 666.337416,497.284928 665.710157,502.514359 C665.552355,503.829945 664.465276,506.200664 662.448921,509.626517 L660.275489,513.950344 C661.793518,513.369454 662.974967,512.847921 663.819837,512.385746 C664.664706,511.923571 665.681505,511.24258 666.870233,510.342774 C668.088056,509.311542 668.99001,508.49508 669.576094,507.893387 C670.162178,507.291695 670.956413,506.366799 671.958796,505.118698 C672.658175,503.916228 673.092013,503.048115 673.260311,502.514359 C673.428608,501.980602 673.675171,500.690817 674,498.645004 C674,497.296125 674,496.306572 674,495.676344 C674,495.046117 674,493.643035 674,491.467101 C673.797218,490.192637 673.550655,489.258244 673.260311,488.66392 C672.969966,488.069597 672.271301,487.069147 671.164316,485.662571 C667.857739,482.170626 666.039686,480.252409 665.710157,479.90792 C664.515946,478.659497 663.124875,478.119625 662.448921,477.648425 C661.015315,476.649075 654.348058,473.082281 652.795796,472.20569 C651.760954,471.621295 650.118226,470.87196 647.867613,469.957683 L642.765656,467.534744 L636.772289,466 C636.772289,466 633.197468,466 626.047828,466 Z" id="Path" stroke="#4A90E2" stroke-width="5" fill="#4A90E2" transform="translate(636.000000, 520.000000) scale(-1, -1) rotate(-83.000000) translate(-636.000000, -520.000000) "></path>
        <path d="M437.047828,601 L438.288995,680.330947 L433.237655,679.1224 C431.331343,678.73288 430.009761,678.485366 429.272908,678.379858 C428.536056,678.27435 427.112602,678.167711 425.002548,678.059942 C424.126628,678.197843 423.319404,678.304482 422.580876,678.379858 C421.473083,678.492923 417.908543,679.816879 416.235357,680.642952 C415.1199,681.193668 414.092956,681.94118 413.154523,682.885487 C412.293665,683.649116 411.613718,684.403947 411.114684,685.14998 C410.61565,685.896013 410.090356,686.942959 409.538804,688.290819 C409.179601,690.415506 409,691.996867 409,693.034901 C409,694.072936 409.317242,695.998734 409.951727,698.812296 C410.305945,699.755047 410.693597,700.506272 411.114684,701.06597 C411.535771,701.625669 412.215718,702.293469 413.154523,703.069371 C414.095437,703.843158 414.804098,704.397471 415.280504,704.732309 C415.75691,705.067147 416.616099,705.614782 417.85807,706.375215 C419.087244,707.049355 419.985121,707.484664 420.5517,707.681141 C421.118278,707.877619 422.239012,708.142322 423.9139,708.47525 C426.572447,708.825083 428.532445,709 429.793895,709 C431.055344,709 433.185346,708.825083 436.1839,708.47525 C437.972531,707.853745 439.120866,707.409568 439.628906,707.142718 C440.136945,706.875868 440.834249,706.350616 441.720817,705.566961 C442.566323,704.969151 443.24062,704.43618 443.743708,703.968047 C444.246796,703.499915 444.887374,702.809371 445.66544,701.896418 C446.702907,700.489589 447.40519,699.461549 447.772289,698.812296 C448.139387,698.163043 448.434187,697.427638 448.656687,696.606082 C449.201897,693.913992 449.524874,692.183652 449.62562,691.415061 C449.726365,690.646471 449.726365,689.912806 449.62562,689.214068 L448.656687,616.97779 L457.08818,618.143076 C458.690884,618.503559 459.889235,618.816101 460.683231,619.080702 C461.477227,619.345302 462.798991,619.872592 464.648523,620.662571 C466.325268,621.494619 467.490201,622.120662 468.14332,622.5407 C468.796439,622.960738 470.133101,623.943535 472.153307,625.489092 C473.487648,626.922231 474.376491,628.071515 474.819837,628.936946 C475.141717,629.565271 477.337416,632.284928 476.710157,637.514359 C476.552355,638.829945 475.465276,641.200664 473.448921,644.626517 L471.275489,648.950344 C472.793518,648.369454 473.974967,647.847921 474.819837,647.385746 C475.664706,646.923571 476.681505,646.24258 477.870233,645.342774 C479.088056,644.311542 479.99001,643.49508 480.576094,642.893387 C481.162178,642.291695 481.956413,641.366799 482.958796,640.118698 C483.658175,638.916228 484.092013,638.048115 484.260311,637.514359 C484.428608,636.980602 484.675171,635.690817 485,633.645004 C485,632.296125 485,631.306572 485,630.676344 C485,630.046117 485,628.643035 485,626.467101 C484.797218,625.192637 484.550655,624.258244 484.260311,623.66392 C483.969966,623.069597 483.271301,622.069147 482.164316,620.662571 C478.857739,617.170626 477.039686,615.252409 476.710157,614.90792 C475.515946,613.659497 474.124875,613.119625 473.448921,612.648425 C472.015315,611.649075 465.348058,608.082281 463.795796,607.20569 C462.760954,606.621295 461.118226,605.87196 458.867613,604.957683 L453.765656,602.534744 L447.772289,601 C447.772289,601 444.197468,601 437.047828,601 Z" id="Path" stroke="#4A90E2" stroke-width="5" fill="#4A90E2" transform="translate(447.000000, 655.000000) scale(-1, -1) rotate(-10.000000) translate(-447.000000, -655.000000) "></path>
    </g>
</svg>