<?xml version="1.0" encoding="UTF-8"?>
<svg width="657px" height="666px" viewBox="0 0 657 666" version="1.1" xmlns="http://www.w3.org/2000/svg" xmlns:xlink="http://www.w3.org/1999/xlink">
    <defs></defs>
    <g id="Artboard" stroke="none" stroke-width="1" fill="none" fill-rule="evenodd">
        <path d="M287.465635,348.317306 L304.351029,374.318532 L114.945683,497.319802 C108.191237,499.980729 103.390487,501.444085 100.543434,501.70987 C90.0842847,502.686277 83.1833973,499.986552 80.5976531,499.033991 C76.9561226,497.69249 71.3389117,493.807148 63.7460204,487.377967 C57.3460532,479.36764 53.2534956,473.065654 51.4683475,468.472009 C46.1751676,454.851296 45.8127012,440.701758 46.4286932,437.730013 C49.5191518,422.820639 58.3124761,415.840267 60.9288502,414.141174 C64.7231937,411.677098 72.4303197,410.001585 84.0502283,409.114634 C92.3945044,411.457872 98.1833553,413.822209 101.416781,416.207644 C104.650207,418.593079 109.827187,424.3187 116.947723,433.384507 L125.59431,453.437774 L287.465635,348.317306 Z M312.756281,371.081241 L343.641213,373.783322 L323.957962,598.763915 C321.896349,605.724721 320.093852,610.408696 318.550472,612.815838 C312.880597,621.658896 306.504574,625.434753 304.162003,626.885892 C300.862935,628.929546 294.342944,630.963914 284.602029,632.988994 C274.349592,633.100588 266.863929,632.445677 262.14504,631.024262 C248.152965,626.809597 236.779821,618.383899 234.817297,616.068902 C224.971226,604.45446 224.884328,593.22768 225.156225,590.119883 C225.550539,585.612863 228.975197,578.508016 235.4302,568.805341 C242.413946,563.672604 247.841041,560.566558 251.711485,559.487204 C255.581929,558.40785 263.281048,557.853378 274.808841,557.823787 L295.934401,563.356208 L312.756281,371.081241 Z M337.261869,375.071028 L366.395072,364.467409 L443.636895,576.687574 C444.710203,583.867482 445.056119,588.874372 444.674645,591.708244 C443.27323,602.11897 439.090337,608.235682 437.580524,610.540874 C435.454239,613.7873 430.404881,618.386531 422.43245,624.338566 C413.187748,628.772571 406.126656,631.342598 401.249175,632.048647 C386.786854,634.14217 372.918431,631.312393 370.16142,630.043692 C356.329374,623.678562 351.505976,613.540368 350.438986,610.608838 C348.891606,606.357447 348.992763,598.470946 350.742455,586.949334 C354.90269,579.346035 358.508637,574.237412 361.560295,571.623465 C364.611954,569.009518 371.355395,565.253207 381.790619,560.354533 L403.27498,556.440562 L337.261869,375.071028 Z M302.599674,356.268419 L328.891631,372.697457 L209.214674,564.220624 C204.217623,569.486795 200.485107,572.841931 198.017126,574.28603 C188.950566,579.591183 181.555285,580.060843 178.809235,580.290312 C174.941945,580.613476 168.209006,579.466096 158.61042,576.848174 C149.42477,572.293095 143.052318,568.311145 139.493066,564.902325 C128.939454,554.794762 122.631095,542.12411 121.93346,539.170466 C118.433393,524.351899 123.452818,514.309314 125.105991,511.663685 C127.503471,507.826916 133.780396,503.051213 143.936768,497.336577 C152.489546,495.933828 158.735238,495.630171 162.673846,496.425604 C166.612453,497.221038 173.724143,500.222326 184.008916,505.429469 L200.320261,519.949696 L302.599674,356.268419 Z M344.442165,392.880792 L363.952927,368.787007 L539.463556,510.912713 C544.081487,516.514302 546.956735,520.627884 548.089299,523.25346 C552.249972,532.898976 551.814873,540.29637 551.707973,543.049917 C551.557424,546.927765 549.598058,553.470687 545.829875,562.678682 C540.1893,571.240739 535.460425,577.080414 531.64325,580.197705 C520.324865,589.44085 506.979863,594.158023 503.963214,594.4905 C488.828552,596.158549 479.472537,589.952654 477.0481,587.989383 C473.532108,585.142189 469.556967,578.330039 465.122678,567.552932 C464.772706,558.892954 465.232471,552.656809 466.501971,548.844499 C467.77147,545.032188 471.617085,538.339273 478.038813,528.765752 L494.438661,514.345559 L344.442165,392.880792 Z M377.160408,336.806153 L369.136265,306.859644 L587.280936,248.407955 C594.527068,247.964502 599.545054,248.056281 602.334894,248.683292 C612.583862,250.986729 618.312736,255.686811 620.477567,257.391789 C623.526321,259.792928 627.66797,265.223921 632.902512,273.684768 C636.513916,283.280741 638.458748,290.538955 638.737011,295.459413 C639.562092,310.049163 635.534371,323.618181 634.030208,326.254126 C626.483757,339.47878 615.963755,343.400221 612.950387,344.207651 C608.58031,345.378609 600.732636,344.590484 589.407363,341.843275 C582.195586,337.0362 577.420681,332.998729 575.082651,329.730863 C572.74462,326.462996 569.590333,319.417831 565.61979,308.59537 L563.593197,286.851637 L377.160408,336.806153 Z M290.881129,320.667043 L295.1959,351.368232 L71.5537773,382.799083 C64.3076137,382.356149 59.3382159,381.653516 56.6455839,380.691182 C46.7537283,377.15588 41.6403531,371.792658 39.6994427,369.836561 C36.9660383,367.081771 33.5171326,361.18652 29.3527256,352.150808 C26.9376961,342.186243 25.8919136,334.745114 26.2153783,329.827422 C27.1744901,315.245869 32.825837,302.268848 34.6400288,299.835862 C43.7419095,287.629465 54.6614004,285.019318 57.7507085,284.585144 C62.2309148,283.955492 69.9240456,285.694134 80.8301009,289.801069 C87.4022881,295.451207 91.6495569,300.040498 93.5719075,303.568941 C95.494258,307.097384 97.766444,314.474446 100.388465,325.700126 L99.7500576,347.528763 L290.881129,320.667043 Z M360.527228,368.184926 L368.02751,338.102937 L587.159079,392.738574 C593.711679,395.863715 598.056014,398.376755 600.192082,400.277693 C608.039303,407.261122 610.771244,414.149319 611.838058,416.690058 C613.340464,420.268207 614.329834,427.026171 614.806167,436.963952 C613.312552,447.107621 611.494689,454.398673 609.352577,458.837106 C603.000959,471.997596 592.899843,481.912649 590.306342,483.488866 C577.294628,491.396816 566.192474,489.726388 563.165473,488.971672 C558.775626,487.877161 552.293986,483.383223 543.720553,475.489859 C539.743506,467.789157 537.524685,461.942986 537.064091,457.951345 C536.603497,453.959705 537.260258,446.268636 539.034377,434.87814 L547.803449,414.878132 L360.527228,368.184926 Z M306.676086,307.666798 L296.582526,336.980623 L83.0466285,263.454316 C76.7913369,259.769971 72.68256,256.88786 70.7202977,254.807985 C63.5115834,247.167199 61.3903847,240.067109 60.5490699,237.44306 C59.3642375,233.747584 58.9676281,226.929106 59.3592416,216.987627 C61.7312524,207.012734 64.1776551,199.907865 66.6984499,195.673019 C74.1729111,183.116188 85.0997423,174.119235 87.8207515,172.775055 C101.472175,166.031242 112.386494,168.66293 115.336199,169.678595 C119.613948,171.151542 125.679251,176.193291 133.532108,184.803842 C136.82286,192.821863 138.52371,198.839171 138.634658,202.855765 C138.745605,206.87236 137.421022,214.476921 134.660907,225.669448 L124.182088,244.829075 L306.676086,307.666798 Z M389.74738,307.878232 L364.987358,289.220216 L500.901251,108.856387 C506.338264,104.045777 510.348996,101.028719 512.933447,99.8052134 C522.427881,95.3104513 529.835954,95.4871199 532.591554,95.4978578 C536.472294,95.5129801 543.079611,97.2428076 552.413504,100.68734 C561.167199,106.025668 567.168352,110.547861 570.416961,114.253918 C580.049482,125.242827 585.229516,138.415073 585.667069,141.418281 C587.862294,156.485509 581.9867,166.052407 580.109237,168.543885 C577.386484,172.157101 570.717213,176.367561 560.101426,181.175265 C551.458937,181.827251 545.210546,181.585405 541.356253,180.449727 C537.50196,179.314048 530.678911,175.704356 520.887108,169.62065 L505.903353,153.73405 L389.74738,307.878232 Z M342.322466,289.263033 L312.674239,298.327406 L246.645018,82.3555572 C245.948948,75.1293158 245.865546,70.1111835 246.394812,67.3011601 C248.339161,56.9780465 252.836445,51.0886327 254.464833,48.8656172 C256.758109,45.7349214 262.041252,41.406257 270.314263,35.879624 C279.778354,31.9355261 286.964273,29.73857 291.872022,29.2887557 C306.424089,27.9550019 320.125407,31.5067179 322.812241,32.9179712 C336.292206,39.9982913 340.578401,50.3750284 341.490504,53.3583822 C342.813263,57.6849305 342.299497,65.5553295 339.949209,76.9695794 C335.396749,84.3447284 331.52838,89.2576296 328.344099,91.7082829 C325.159819,94.1589362 318.22903,97.5571744 307.551731,101.902998 L285.891971,104.687201 L342.322466,289.263033 Z M372.807055,293.045985 L343.898025,289.496403 L371.420995,65.3397981 C373.637334,58.4445053 375.518839,53.8160551 377.065512,51.4544475 C382.747487,42.7786683 388.889533,39.1831995 391.148705,37.7984156 C394.330319,35.84821 400.537733,33.9960166 409.770944,32.2418354 C419.407949,32.4128383 426.414707,33.27316 430.791219,34.8228006 C443.768106,39.4176725 454.1154,48.1461518 455.866346,50.5123179 C464.650917,62.3834776 464.28196,73.5985942 463.901768,76.6950091 C463.350402,81.185522 459.847654,88.1871229 453.393522,97.6998118 C446.626038,102.633719 441.402427,105.586359 437.722687,106.55773 C434.042948,107.529101 426.7871,107.870767 415.955145,107.582728 L396.328987,101.475222 L372.807055,293.045985 Z M328.167038,298.273535 L307.023106,320.947626 L141.854199,166.925129 C137.638265,161.015055 135.05697,156.710926 134.110316,154.012742 C130.632615,144.100489 131.58267,136.751465 131.881388,134.012083 C132.302075,130.154183 134.713079,123.763878 139.1144,114.841168 C145.338494,106.693434 150.463205,101.197854 154.488533,98.3544292 C166.424116,89.9233308 180.065663,86.1485482 183.098156,86.0273124 C198.312308,85.4190672 207.212631,92.2624873 209.494212,94.390096 C212.803029,97.4756175 216.293295,104.548466 219.96501,115.60864 C219.710039,124.271936 218.816383,130.460819 217.284042,134.175287 C215.751701,137.889755 211.448581,144.29811 204.37468,153.400353 L187.00888,166.641423 L328.167038,298.273535 Z" id="Combined-Shape" fill="#F5A623"></path>
        <ellipse id="Oval" fill="#FFFFFF" cx="332.5" cy="346" rx="82.5" ry="97"></ellipse>
    </g>
</svg>
