<?xml version="1.0" encoding="UTF-8"?>
<svg width="1332px" height="1280px" viewBox="0 0 1332 1280" version="1.1" xmlns="http://www.w3.org/2000/svg" xmlns:xlink="http://www.w3.org/1999/xlink">
    <!-- Generator: Sketch 50.2 (55047) - http://www.bohemiancoding.com/sketch -->
    <title>Artboard</title>
    <desc>Created with Sketch.</desc>
    <defs></defs>
    <g id="Artboard" stroke="none" stroke-width="1" fill="none" fill-rule="evenodd">
        <path d="M978.007496,323.475807 C958.129385,323.475807 942.014992,308.01875 942.014992,288.951505 C942.014992,269.884259 958.129385,254.427203 978.007496,254.427203 C997.885607,254.427203 1014,269.884259 1014,288.951505 C1014,308.01875 997.885607,323.475807 978.007496,323.475807 Z M575.14837,141.992734 C605.440295,137.403017 627.031095,137.403017 639.920771,141.992734 C644.638043,143.672447 672.011675,157.955702 677.351671,179.085207 C683.458347,203.248343 667.156897,234.629828 665.510105,236.484105 C656.939084,246.135018 636.969947,253.698268 605.602694,259.173854 C571.846138,255.510869 549.57287,247.94762 538.78289,236.484105 C527.992911,225.02059 522.032549,202.587803 520.901805,169.185744 C524.299384,139.38461 530.259746,116.806211 538.78289,101.450547 C547.306035,86.0948821 561.079024,69.8491031 580.101859,52.7132093 C596.961091,41.9778057 612.829455,34.0605865 627.70695,28.9615516 C642.584445,23.8625167 662.921559,20.8753328 688.71829,20 C717.506695,22.4964438 738.652501,25.4836277 752.155707,28.9615516 C760.062479,30.9980422 769.895927,32.5523888 785.974653,38.380017 C793.561694,41.1298904 807.709034,46.9969218 828.416672,55.9811114 C846.71789,70.1512534 858.147925,79.4932359 862.706776,84.0070591 C880.038819,101.167911 880.815212,109.602637 887.714355,122.964694 C897.335523,141.59869 904.626589,171.673957 909.587555,213.190495 C908.240885,252.53846 904.653115,280.853537 898.824246,298.135725 C892.995378,315.417914 877.439818,343.861472 852.157567,383.466399 C831.62562,408.077362 810.516184,429.985518 788.82926,449.190868 C767.142336,468.396217 736.602435,492.227306 697.209559,520.684135 L507,623 L655.183233,501.000842 C680.81338,474.288285 699.649146,453.634691 711.690531,439.04006 C723.731916,424.445429 737.220308,405.920875 752.155707,383.466399 C771.52179,346.620737 783.746307,321.268745 788.82926,307.410423 C793.912212,293.552101 798.520475,273.010671 802.654047,245.786131 C809.206173,213.053375 810.212772,187.519913 805.673844,169.185744 C802.996851,158.372522 797.496037,135.663171 788.82926,118.418765 C784.810575,110.422735 778.451891,100.574759 769.753205,88.8748383 C751.858114,72.6611255 736.647393,61.6965499 724.121041,55.9811114 C711.594689,50.2656729 696.004899,47.364143 677.351671,47.2765219 L633.161946,52.7132093 C604.79423,68.3793459 588.318885,81.7455209 583.735912,92.8117343 C579.152939,103.877948 576.290425,120.271614 575.14837,141.992734 Z M978.007496,157.358876 C958.129385,157.358876 942.014992,141.901819 942.014992,122.834574 C942.014992,103.767328 958.129385,88.3102717 978.007496,88.3102717 C997.885607,88.3102717 1014,103.767328 1014,122.834574 C1014,141.901819 997.885607,157.358876 978.007496,157.358876 Z" id="Combined-Shape" fill="#6A10BA" transform="translate(760.500000, 321.500000) rotate(-90.000000) translate(-760.500000, -321.500000) "></path>
        <path d="M1184.0075,665.475807 C1164.12938,665.475807 1148.01499,650.01875 1148.01499,630.951505 C1148.01499,611.884259 1164.12938,596.427203 1184.0075,596.427203 C1203.88561,596.427203 1220,611.884259 1220,630.951505 C1220,650.01875 1203.88561,665.475807 1184.0075,665.475807 Z M781.14837,483.992734 C811.440295,479.403017 833.031095,479.403017 845.920771,483.992734 C850.638043,485.672447 878.011675,499.955702 883.351671,521.085207 C889.458347,545.248343 873.156897,576.629828 871.510105,578.484105 C862.939084,588.135018 842.969947,595.698268 811.602694,601.173854 C777.846138,597.510869 755.57287,589.94762 744.78289,578.484105 C733.992911,567.02059 728.032549,544.587803 726.901805,511.185744 C730.299384,481.38461 736.259746,458.806211 744.78289,443.450547 C753.306035,428.094882 767.079024,411.849103 786.101859,394.713209 C802.961091,383.977806 818.829455,376.060586 833.70695,370.961552 C848.584445,365.862517 868.921559,362.875333 894.71829,362 C923.506695,364.496444 944.652501,367.483628 958.155707,370.961552 C966.062479,372.998042 975.895927,374.552389 991.974653,380.380017 C999.561694,383.12989 1013.70903,388.996922 1034.41667,397.981111 C1052.71789,412.151253 1064.14792,421.493236 1068.70678,426.007059 C1086.03882,443.167911 1086.81521,451.602637 1093.71435,464.964694 C1103.33552,483.59869 1110.62659,513.673957 1115.58756,555.190495 C1114.24088,594.53846 1110.65311,622.853537 1104.82425,640.135725 C1098.99538,657.417914 1083.43982,685.861472 1058.15757,725.466399 C1037.62562,750.077362 1016.51618,771.985518 994.82926,791.190868 C973.142336,810.396217 942.602435,834.227306 903.209559,862.684135 L713,965 L861.183233,843.000842 C886.81338,816.288285 905.649146,795.634691 917.690531,781.04006 C929.731916,766.445429 943.220308,747.920875 958.155707,725.466399 C977.52179,688.620737 989.746307,663.268745 994.82926,649.410423 C999.912212,635.552101 1004.52047,615.010671 1008.65405,587.786131 C1015.20617,555.053375 1016.21277,529.519913 1011.67384,511.185744 C1008.99685,500.372522 1003.49604,477.663171 994.82926,460.418765 C990.810575,452.422735 984.451891,442.574759 975.753205,430.874838 C957.858114,414.661126 942.647393,403.69655 930.121041,397.981111 C917.594689,392.265673 902.004899,389.364143 883.351671,389.276522 L839.161946,394.713209 C810.79423,410.379346 794.318885,423.745521 789.735912,434.811734 C785.152939,445.877948 782.290425,462.271614 781.14837,483.992734 Z M1184.0075,499.358876 C1164.12938,499.358876 1148.01499,483.901819 1148.01499,464.834574 C1148.01499,445.767328 1164.12938,430.310272 1184.0075,430.310272 C1203.88561,430.310272 1220,445.767328 1220,464.834574 C1220,483.901819 1203.88561,499.358876 1184.0075,499.358876 Z" id="Combined-Shape" fill="#6A10BA" transform="translate(966.500000, 663.500000) rotate(-15.000000) translate(-966.500000, -663.500000) "></path>
        <path d="M978.007496,968.475807 C958.129385,968.475807 942.014992,953.01875 942.014992,933.951505 C942.014992,914.884259 958.129385,899.427203 978.007496,899.427203 C997.885607,899.427203 1014,914.884259 1014,933.951505 C1014,953.01875 997.885607,968.475807 978.007496,968.475807 Z M575.14837,786.992734 C605.440295,782.403017 627.031095,782.403017 639.920771,786.992734 C644.638043,788.672447 672.011675,802.955702 677.351671,824.085207 C683.458347,848.248343 667.156897,879.629828 665.510105,881.484105 C656.939084,891.135018 636.969947,898.698268 605.602694,904.173854 C571.846138,900.510869 549.57287,892.94762 538.78289,881.484105 C527.992911,870.02059 522.032549,847.587803 520.901805,814.185744 C524.299384,784.38461 530.259746,761.806211 538.78289,746.450547 C547.306035,731.094882 561.079024,714.849103 580.101859,697.713209 C596.961091,686.977806 612.829455,679.060586 627.70695,673.961552 C642.584445,668.862517 662.921559,665.875333 688.71829,665 C717.506695,667.496444 738.652501,670.483628 752.155707,673.961552 C760.062479,675.998042 769.895927,677.552389 785.974653,683.380017 C793.561694,686.12989 807.709034,691.996922 828.416672,700.981111 C846.71789,715.151253 858.147925,724.493236 862.706776,729.007059 C880.038819,746.167911 880.815212,754.602637 887.714355,767.964694 C897.335523,786.59869 904.626589,816.673957 909.587555,858.190495 C908.240885,897.53846 904.653115,925.853537 898.824246,943.135725 C892.995378,960.417914 877.439818,988.861472 852.157567,1028.4664 C831.62562,1053.07736 810.516184,1074.98552 788.82926,1094.19087 C767.142336,1113.39622 736.602435,1137.22731 697.209559,1165.68413 L507,1268 L655.183233,1146.00084 C680.81338,1119.28829 699.649146,1098.63469 711.690531,1084.04006 C723.731916,1069.44543 737.220308,1050.92088 752.155707,1028.4664 C771.52179,991.620737 783.746307,966.268745 788.82926,952.410423 C793.912212,938.552101 798.520475,918.010671 802.654047,890.786131 C809.206173,858.053375 810.212772,832.519913 805.673844,814.185744 C802.996851,803.372522 797.496037,780.663171 788.82926,763.418765 C784.810575,755.422735 778.451891,745.574759 769.753205,733.874838 C751.858114,717.661126 736.647393,706.69655 724.121041,700.981111 C711.594689,695.265673 696.004899,692.364143 677.351671,692.276522 L633.161946,697.713209 C604.79423,713.379346 588.318885,726.745521 583.735912,737.811734 C579.152939,748.877948 576.290425,765.271614 575.14837,786.992734 Z M978.007496,802.358876 C958.129385,802.358876 942.014992,786.901819 942.014992,767.834574 C942.014992,748.767328 958.129385,733.310272 978.007496,733.310272 C997.885607,733.310272 1014,748.767328 1014,767.834574 C1014,786.901819 997.885607,802.358876 978.007496,802.358876 Z" id="Combined-Shape" fill="#6A10BA" transform="translate(760.500000, 966.500000) rotate(47.000000) translate(-760.500000, -966.500000) "></path>
        <path d="M603.007496,464.475807 C583.129385,464.475807 567.014992,449.01875 567.014992,429.951505 C567.014992,410.884259 583.129385,395.427203 603.007496,395.427203 C622.885607,395.427203 639,410.884259 639,429.951505 C639,449.01875 622.885607,464.475807 603.007496,464.475807 Z M200.14837,282.992734 C230.440295,278.403017 252.031095,278.403017 264.920771,282.992734 C269.638043,284.672447 297.011675,298.955702 302.351671,320.085207 C308.458347,344.248343 292.156897,375.629828 290.510105,377.484105 C281.939084,387.135018 261.969947,394.698268 230.602694,400.173854 C196.846138,396.510869 174.57287,388.94762 163.78289,377.484105 C152.992911,366.02059 147.032549,343.587803 145.901805,310.185744 C149.299384,280.38461 155.259746,257.806211 163.78289,242.450547 C172.306035,227.094882 186.079024,210.849103 205.101859,193.713209 C221.961091,182.977806 237.829455,175.060586 252.70695,169.961552 C267.584445,164.862517 287.921559,161.875333 313.71829,161 C342.506695,163.496444 363.652501,166.483628 377.155707,169.961552 C385.062479,171.998042 394.895927,173.552389 410.974653,179.380017 C418.561694,182.12989 432.709034,187.996922 453.416672,196.981111 C471.71789,211.151253 483.147925,220.493236 487.706776,225.007059 C505.038819,242.167911 505.815212,250.602637 512.714355,263.964694 C522.335523,282.59869 529.626589,312.673957 534.587555,354.190495 C533.240885,393.53846 529.653115,421.853537 523.824246,439.135725 C517.995378,456.417914 502.439818,484.861472 477.157567,524.466399 C456.62562,549.077362 435.516184,570.985518 413.82926,590.190868 C392.142336,609.396217 361.602435,633.227306 322.209559,661.684135 L132,764 L280.183233,642.000842 C305.81338,615.288285 324.649146,594.634691 336.690531,580.04006 C348.731916,565.445429 362.220308,546.920875 377.155707,524.466399 C396.52179,487.620737 408.746307,462.268745 413.82926,448.410423 C418.912212,434.552101 423.520475,414.010671 427.654047,386.786131 C434.206173,354.053375 435.212772,328.519913 430.673844,310.185744 C427.996851,299.372522 422.496037,276.663171 413.82926,259.418765 C409.810575,251.422735 403.451891,241.574759 394.753205,229.874838 C376.858114,213.661126 361.647393,202.69655 349.121041,196.981111 C336.594689,191.265673 321.004899,188.364143 302.351671,188.276522 L258.161946,193.713209 C229.79423,209.379346 213.318885,222.745521 208.735912,233.811734 C204.152939,244.877948 201.290425,261.271614 200.14837,282.992734 Z M603.007496,298.358876 C583.129385,298.358876 567.014992,282.901819 567.014992,263.834574 C567.014992,244.767328 583.129385,229.310272 603.007496,229.310272 C622.885607,229.310272 639,244.767328 639,263.834574 C639,282.901819 622.885607,298.358876 603.007496,298.358876 Z" id="Combined-Shape" fill="#6A10BA" transform="translate(385.500000, 462.500000) rotate(187.000000) translate(-385.500000, -462.500000) "></path>
        <path d="M603.007496,831.475807 C583.129385,831.475807 567.014992,816.01875 567.014992,796.951505 C567.014992,777.884259 583.129385,762.427203 603.007496,762.427203 C622.885607,762.427203 639,777.884259 639,796.951505 C639,816.01875 622.885607,831.475807 603.007496,831.475807 Z M200.14837,649.992734 C230.440295,645.403017 252.031095,645.403017 264.920771,649.992734 C269.638043,651.672447 297.011675,665.955702 302.351671,687.085207 C308.458347,711.248343 292.156897,742.629828 290.510105,744.484105 C281.939084,754.135018 261.969947,761.698268 230.602694,767.173854 C196.846138,763.510869 174.57287,755.94762 163.78289,744.484105 C152.992911,733.02059 147.032549,710.587803 145.901805,677.185744 C149.299384,647.38461 155.259746,624.806211 163.78289,609.450547 C172.306035,594.094882 186.079024,577.849103 205.101859,560.713209 C221.961091,549.977806 237.829455,542.060586 252.70695,536.961552 C267.584445,531.862517 287.921559,528.875333 313.71829,528 C342.506695,530.496444 363.652501,533.483628 377.155707,536.961552 C385.062479,538.998042 394.895927,540.552389 410.974653,546.380017 C418.561694,549.12989 432.709034,554.996922 453.416672,563.981111 C471.71789,578.151253 483.147925,587.493236 487.706776,592.007059 C505.038819,609.167911 505.815212,617.602637 512.714355,630.964694 C522.335523,649.59869 529.626589,679.673957 534.587555,721.190495 C533.240885,760.53846 529.653115,788.853537 523.824246,806.135725 C517.995378,823.417914 502.439818,851.861472 477.157567,891.466399 C456.62562,916.077362 435.516184,937.985518 413.82926,957.190868 C392.142336,976.396217 361.602435,1000.22731 322.209559,1028.68413 L132,1131 L280.183233,1009.00084 C305.81338,982.288285 324.649146,961.634691 336.690531,947.04006 C348.731916,932.445429 362.220308,913.920875 377.155707,891.466399 C396.52179,854.620737 408.746307,829.268745 413.82926,815.410423 C418.912212,801.552101 423.520475,781.010671 427.654047,753.786131 C434.206173,721.053375 435.212772,695.519913 430.673844,677.185744 C427.996851,666.372522 422.496037,643.663171 413.82926,626.418765 C409.810575,618.422735 403.451891,608.574759 394.753205,596.874838 C376.858114,580.661126 361.647393,569.69655 349.121041,563.981111 C336.594689,558.265673 321.004899,555.364143 302.351671,555.276522 L258.161946,560.713209 C229.79423,576.379346 213.318885,589.745521 208.735912,600.811734 C204.152939,611.877948 201.290425,628.271614 200.14837,649.992734 Z M603.007496,665.358876 C583.129385,665.358876 567.014992,649.901819 567.014992,630.834574 C567.014992,611.767328 583.129385,596.310272 603.007496,596.310272 C622.885607,596.310272 639,611.767328 639,630.834574 C639,649.901819 622.885607,665.358876 603.007496,665.358876 Z" id="Combined-Shape" fill="#6A10BA" transform="translate(385.500000, 829.500000) rotate(126.000000) translate(-385.500000, -829.500000) "></path>
    </g>
</svg>